<?xml version="1.0" standalone="no"?><!DOCTYPE svg PUBLIC "-//W3C//DTD SVG 1.1//EN" "http://www.w3.org/Graphics/SVG/1.1/DTD/svg11.dtd"><svg t="1774367952949" class="icon" viewBox="0 0 1024 1024" version="1.1" xmlns="http://www.w3.org/2000/svg" p-id="1717" xmlns:xlink="http://www.w3.org/1999/xlink" width="200" height="200"><path d="M872.803 755.994h0.061v-0.37zM744.056 192.8c-4.815-2.89-9.602-5.253-15.443-5.253-14.263 0-25.759 11.56-25.759 25.806 0 10.285 6.089 18.52 14.696 23.195 94.68 55.248 158.344 157.788 158.344 275.305 0 117.424-63.605 219.93-158.159 275.18-8.295 4.538-15.443 13.05-15.443 23.583 0 14.262 11.56 25.82 25.792 25.82 5.716 0 10.252-2.202 15.225-5.063 109.871-64.134 183.764-183.143 183.764-319.52 0.002-136.067-73.578-254.842-183.017-319.054z" fill="" p-id="1718"></path><path d="M773.946 511.868c0-79.965-43.344-149.74-107.821-187.29-2.92-1.522-9.786-4.52-14.604-4.52-14.325 0-25.914 11.59-25.914 25.9 0 9.615 5.096 18.176 12.865 22.666 49.84 28.307 83.46 81.83 83.46 143.244 0 62.473-34.802 116.818-86.07 144.75-7.458 4.54-12.398 12.804-12.398 22.19 0 14.324 11.59 25.943 25.883 25.943 6.09 0.032 13.33-3.543 13.33-3.543 66.372-37.036 111.27-107.913 111.27-189.34zM541.37 124.672c-10.847-5.22-23.741-3.79-33.216 3.713-0.436 0.358-46.423 36.915-97.196 74.296-88.308 65.081-114.036 75.925-119.257 77.65h-110.62c-0.637 0-1.243 0.062-1.88 0.093h-56.504c-14.231 0-25.775 11.544-25.775 25.775v411.697c0 14.262 11.512 25.762 25.775 25.762l189.511 0.028c5.096 1.865 29.396 13.08 107.761 77 45.614 37.162 86.506 73.485 86.94 73.829 5.842 5.219 13.3 7.92 20.82 7.92 4.35 0 8.73-0.93 12.864-2.765a31.347 31.347 0 0 0 18.517-28.62s0.032-97.257 0.032-132.212c0.809-2.484 1.214-5.127 1.214-7.863 0-2.792-1.246-578.027-1.246-578.027a31.412 31.412 0 0 0-17.74-28.276z m-33.062 601.799c0 1.494-0.467 94.618-0.467 94.618-13.89-11.746-29.332-24.64-45.24-37.508-104.59-84.702-130.506-91.816-148.031-91.816-0.373 0-0.684 0.091-1.025 0.091s-0.653-0.09-1.026-0.09H170.394c-18.038 0-22.248-5.13-22.248-23.247v-315.96c0-12.32 1.46-20.057 16.298-20.057H292.51c17.09 0 43.315-6.991 157.787-90.84 20.383-14.915 40.33-29.939 57.545-43.114 0 0 0.373 445.208 0.467 521.368-0.53 2.112 0 4.319 0 6.555z" fill="" p-id="1719"></path></svg>